<svg width="800" height="600" viewBox="0 0 800 600" fill="none" xmlns="http://www.w3.org/2000/svg">
  <!-- Background Elements -->
  <path d="M0 0h800v600H0z" fill="white"/>
  <path d="M100 100h600v400H100z" fill="oklch(0.98 0.005 260)"/>
  
  <!-- Invoice Stack -->
  <g transform="translate(200 150)">
    <!-- Bottom Invoice -->
    <rect x="0" y="20" width="300" height="400" rx="8" fill="white" filter="url(#shadow)"/>
    <!-- Middle Invoice -->
    <rect x="10" y="10" width="300" height="400" rx="8" fill="white" filter="url(#shadow)"/>
    <!-- Top Invoice -->
    <rect x="20" y="0" width="300" height="400" rx="8" fill="white" filter="url(#shadow)"/>
    
    <!-- Invoice Content -->
    <rect x="50" y="40" width="150" height="20" rx="4" fill="oklch(0.49 0.15 260)"/>
    <rect x="50" y="80" width="240" height="8" rx="4" fill="oklch(0.95 0.005 260)"/>
    <rect x="50" y="100" width="200" height="8" rx="4" fill="oklch(0.95 0.005 260)"/>
    <rect x="50" y="140" width="240" height="40" rx="4" fill="oklch(0.98 0.005 260)"/>
    <rect x="50" y="200" width="240" height="40" rx="4" fill="oklch(0.98 0.005 260)"/>
    
    <!-- Payment Status -->
    <circle cx="270" cy="40" r="20" fill="oklch(0.95 0.15 140)"/>
    <path d="M260 40l5 5 15-15" stroke="white" stroke-width="2"/>
  </g>
  
  <!-- Decorative Elements -->
  <circle cx="600" cy="150" r="50" fill="oklch(0.49 0.15 260)" fill-opacity="0.1"/>
  <circle cx="150" cy="450" r="30" fill="oklch(0.49 0.15 260)" fill-opacity="0.1"/>
  
  <!-- Filters -->
  <defs>
    <filter id="shadow" x="-10" y="-10" width="120%" height="120%" filterUnits="userSpaceOnUse">
      <feDropShadow dx="0" dy="4" stdDeviation="8" flood-opacity="0.1"/>
    </filter>
  </defs>
</svg> 